# xmcd
#
# Track frame offsets: 
#        150
#        16064
#        29935
#        43540
#        54980
#        70538
#        84626
#        98165
#        118717
#        132138
#        151505
#
# Disc length: 2236 seconds
#
# Revision: 1
# Processed by: cddbd v1.5.2PL0 Copyright (c) Steve Scherf et al.
# Submitted via: ExactAudioCopy v1.0b3
#
DISCID=8008ba0b
DTITLE=Terri Clark - Classic
DYEAR=2012
DGENRE=Country
TTITLE0=It Wasn't God Who Made Honky Tonk Angels
TTITLE1=Love Is a Rose
TTITLE2=How Blue (feat. Reba McEntire)
TTITLE3=Don't Come Home A Drinkin' (with Lovin' On Your Mind)
TTITLE4=Gentle On My Mind
TTITLE5=Golden Ring (feat. Dierks Bentley)
TTITLE6=Two More Bottles of Wine
TTITLE7=Leavin' On Your Mind (feat. Jann Arden)
TTITLE8=Swinging Doors
TTITLE9=Delta Dawn (feat. Tanya Tucker)
TTITLE10=I'm Movin' On (feat. Dean Brody)
EXTD=
EXTT0=
EXTT1=
EXTT2=
EXTT3=
EXTT4=
EXTT5=
EXTT6=
EXTT7=
EXTT8=
EXTT9=
EXTT10=
PLAYORDER=
